A coming of age story involving young love and a mysterious music, coming from a crystal radio left as a memento by an absent father, that leads a young heroine deep into a hidden world. 

General
ID                                       : 1 (0x1)
Complete name                            : Children.Who.Chase.Lost.Voices.2011.1080p.BluRay.x264-WarApe.m2ts
Format                                   : BDAV
Format/Info                              : Blu-ray Video
File size                                : 7.20 GiB
Duration                                 : 1h 56mn
Overall bit rate mode                    : Variable
Overall bit rate                         : 8 877 Kbps
Maximum Overall bit rate                 : 35.5 Mbps

Video
ID                                       : 4113 (0x1011)
Menu ID                                  : 1 (0x1)
Format                                   : AVC
Format/Info                              : Advanced Video Codec
Format profile                           : High@L4.1
Format settings, CABAC                   : Yes
Format settings, ReFrames                : 4 frames
Codec ID                                 : 27
Duration                                 : 1h 56mn
Bit rate mode                            : Variable
Bit rate                                 : 6 775 Kbps
Maximum bit rate                         : 40.0 Mbps
Width                                    : 1 920 pixels
Height                                   : 1 080 pixels
Display aspect ratio                     : 16:9
Frame rate                               : 23.976 fps
Color space                              : YUV
Chroma subsampling                       : 4:2:0
Bit depth                                : 8 bits
Scan type                                : Progressive
Bits/(Pixel*Frame)                       : 0.136
Stream size                              : 5.68 GiB (79%)
Writing library                          : x264 core 129 r2245 bc13772
Encoding settings                        : cabac=1 / ref=4 / deblock=1:0:0 / analyse=0x3:0x113 / me=umh / subme=7 / psy=1 / psy_rd=1.00:0.00 / mixed_ref=1 / me_range=16 / chroma_me=1 / trellis=1 / 8x8dct=1 / cqm=0 / deadzone=21,11 / fast_pskip=1 / chroma_qp_offset=-2 / threads=6 / lookahead_threads=1 / sliced_threads=0 / nr=0 / decimate=1 / interlaced=0 / bluray_compat=0 / constrained_intra=0 / bframes=3 / b_pyramid=2 / b_adapt=1 / b_bias=0 / direct=1 / weightb=1 / open_gop=0 / weightp=2 / keyint=240 / keyint_min=23 / scenecut=40 / intra_refresh=0 / rc_lookahead=40 / rc=2pass / mbtree=1 / bitrate=6775 / ratetol=1.0 / qcomp=0.60 / qpmin=10 / qpmax=51 / qpstep=4 / cplxblur=20.0 / qblur=0.5 / ip_ratio=1.40 / aq=1:1.0
Language                                 : English

Audio
ID                                       : 4352 (0x1100)
Menu ID                                  : 1 (0x1)
Format                                   : DTS
Format/Info                              : Digital Theater Systems
Mode                                     : 16
Format settings, Endianness              : Big
Codec ID                                 : 130
Duration                                 : 1h 56mn
Bit rate mode                            : Constant
Bit rate                                 : 1 509 Kbps
Channel(s)                               : 6 channels
Channel positions                        : Front: L C R, Side: L R, LFE
Sampling rate                            : 48.0 KHz
Bit depth                                : 24 bits
Compression mode                         : Lossy
Stream size                              : 1.22 GiB (17%)
Language                                 : English

Text
ID                                       : 4608 (0x1200)
Menu ID                                  : 1 (0x1)
Format                                   : PGS
Codec ID                                 : 144
Language                                 : English
